<mxfile host="app.diagrams.net" agent="Mozilla/5.0 (Windows NT 10.0; Win64; x64) AppleWebKit/537.36 (KHTML, like Gecko) Chrome/136.0.0.0 Safari/537.36" version="27.0.3">
  <diagram id="R2lEEEUBdFMjLlhIrx00" name="Page-1">
    <mxGraphModel dx="2170" dy="1866" grid="1" gridSize="10" guides="1" tooltips="1" connect="1" arrows="1" fold="1" page="1" pageScale="1" pageWidth="850" pageHeight="1100" math="0" shadow="0" extFonts="Permanent Marker^https://fonts.googleapis.com/css?family=Permanent+Marker">
      <root>
        <mxCell id="0" />
        <mxCell id="1" parent="0" />
        <mxCell id="cjYBByrVhoPnJ-2IZSXI-26" style="edgeStyle=orthogonalEdgeStyle;rounded=0;orthogonalLoop=1;jettySize=auto;html=1;exitX=1;exitY=0.5;exitDx=0;exitDy=0;entryX=0;entryY=0.5;entryDx=0;entryDy=0;endArrow=none;startFill=0;strokeWidth=3;fontSize=26;" edge="1" parent="1" source="cjYBByrVhoPnJ-2IZSXI-27" target="cjYBByrVhoPnJ-2IZSXI-39">
          <mxGeometry relative="1" as="geometry" />
        </mxCell>
        <mxCell id="cjYBByrVhoPnJ-2IZSXI-83" style="edgeStyle=orthogonalEdgeStyle;rounded=0;orthogonalLoop=1;jettySize=auto;html=1;exitX=0.5;exitY=1;exitDx=0;exitDy=0;entryX=0.5;entryY=0;entryDx=0;entryDy=0;endArrow=none;startFill=0;strokeWidth=3;" edge="1" parent="1" source="cjYBByrVhoPnJ-2IZSXI-27" target="cjYBByrVhoPnJ-2IZSXI-82">
          <mxGeometry relative="1" as="geometry" />
        </mxCell>
        <mxCell id="cjYBByrVhoPnJ-2IZSXI-27" value="CAMIONERO" style="rounded=0;whiteSpace=wrap;html=1;fontSize=26;fillColor=#60a917;fontColor=#ffffff;strokeColor=#2D7600;" vertex="1" parent="1">
          <mxGeometry x="418.5" y="-465" width="187" height="60" as="geometry" />
        </mxCell>
        <mxCell id="cjYBByrVhoPnJ-2IZSXI-28" style="edgeStyle=orthogonalEdgeStyle;rounded=0;orthogonalLoop=1;jettySize=auto;html=1;exitX=1;exitY=0.5;exitDx=0;exitDy=0;entryX=0.214;entryY=-0.04;entryDx=0;entryDy=0;strokeWidth=3;endArrow=none;startFill=0;fontSize=26;entryPerimeter=0;" edge="1" parent="1" source="cjYBByrVhoPnJ-2IZSXI-29" target="cjYBByrVhoPnJ-2IZSXI-27">
          <mxGeometry relative="1" as="geometry" />
        </mxCell>
        <mxCell id="cjYBByrVhoPnJ-2IZSXI-29" value="Nombre" style="ellipse;whiteSpace=wrap;html=1;fontSize=26;fillColor=#a0522d;fontColor=#ffffff;strokeColor=#6D1F00;" vertex="1" parent="1">
          <mxGeometry x="228.5" y="-575" width="123" height="50" as="geometry" />
        </mxCell>
        <mxCell id="cjYBByrVhoPnJ-2IZSXI-30" style="edgeStyle=orthogonalEdgeStyle;rounded=0;orthogonalLoop=1;jettySize=auto;html=1;exitX=1;exitY=0.5;exitDx=0;exitDy=0;entryX=0;entryY=0.25;entryDx=0;entryDy=0;strokeWidth=3;endArrow=none;startFill=0;fontSize=26;" edge="1" parent="1" source="cjYBByrVhoPnJ-2IZSXI-31" target="cjYBByrVhoPnJ-2IZSXI-27">
          <mxGeometry relative="1" as="geometry" />
        </mxCell>
        <mxCell id="cjYBByrVhoPnJ-2IZSXI-31" value="Apellido" style="ellipse;whiteSpace=wrap;html=1;fontSize=26;fillColor=#a0522d;fontColor=#ffffff;strokeColor=#6D1F00;" vertex="1" parent="1">
          <mxGeometry x="228.5" y="-515" width="120" height="50" as="geometry" />
        </mxCell>
        <mxCell id="cjYBByrVhoPnJ-2IZSXI-32" value="&lt;u&gt;DNI&lt;/u&gt;" style="ellipse;whiteSpace=wrap;html=1;fontSize=26;fillColor=#a0522d;fontColor=#ffffff;strokeColor=#6D1F00;" vertex="1" parent="1">
          <mxGeometry x="244.5" y="-452" width="88" height="40" as="geometry" />
        </mxCell>
        <mxCell id="cjYBByrVhoPnJ-2IZSXI-33" value="Direccion" style="ellipse;whiteSpace=wrap;html=1;fontSize=26;fillColor=#a0522d;fontColor=#ffffff;strokeColor=#6D1F00;" vertex="1" parent="1">
          <mxGeometry x="208.5" y="-395" width="150" height="40" as="geometry" />
        </mxCell>
        <mxCell id="cjYBByrVhoPnJ-2IZSXI-34" value="Salario mensual" style="ellipse;whiteSpace=wrap;html=1;fontSize=26;fillColor=#a0522d;fontColor=#ffffff;strokeColor=#6D1F00;" vertex="1" parent="1">
          <mxGeometry x="163.5" y="-342" width="240" height="47" as="geometry" />
        </mxCell>
        <mxCell id="cjYBByrVhoPnJ-2IZSXI-35" style="edgeStyle=orthogonalEdgeStyle;rounded=0;orthogonalLoop=1;jettySize=auto;html=1;exitX=1;exitY=0.5;exitDx=0;exitDy=0;entryX=-0.003;entryY=0.547;entryDx=0;entryDy=0;entryPerimeter=0;strokeWidth=3;endArrow=none;startFill=0;fontSize=26;" edge="1" parent="1" source="cjYBByrVhoPnJ-2IZSXI-32" target="cjYBByrVhoPnJ-2IZSXI-27">
          <mxGeometry relative="1" as="geometry" />
        </mxCell>
        <mxCell id="cjYBByrVhoPnJ-2IZSXI-36" style="edgeStyle=orthogonalEdgeStyle;rounded=0;orthogonalLoop=1;jettySize=auto;html=1;exitX=1;exitY=0.5;exitDx=0;exitDy=0;entryX=-0.01;entryY=0.822;entryDx=0;entryDy=0;entryPerimeter=0;strokeWidth=3;endArrow=none;startFill=0;fontSize=26;" edge="1" parent="1" source="cjYBByrVhoPnJ-2IZSXI-33" target="cjYBByrVhoPnJ-2IZSXI-27">
          <mxGeometry relative="1" as="geometry" />
        </mxCell>
        <mxCell id="cjYBByrVhoPnJ-2IZSXI-38" style="edgeStyle=orthogonalEdgeStyle;rounded=0;orthogonalLoop=1;jettySize=auto;html=1;exitX=1;exitY=0.5;exitDx=0;exitDy=0;entryX=0;entryY=0.5;entryDx=0;entryDy=0;endArrow=none;startFill=0;strokeWidth=3;fontSize=26;" edge="1" parent="1" source="cjYBByrVhoPnJ-2IZSXI-39">
          <mxGeometry relative="1" as="geometry">
            <mxPoint x="895.5" y="-435" as="targetPoint" />
          </mxGeometry>
        </mxCell>
        <mxCell id="cjYBByrVhoPnJ-2IZSXI-98" style="edgeStyle=orthogonalEdgeStyle;rounded=0;orthogonalLoop=1;jettySize=auto;html=1;exitX=0.5;exitY=1;exitDx=0;exitDy=0;entryX=0.5;entryY=0;entryDx=0;entryDy=0;endArrow=none;startFill=0;strokeWidth=3;" edge="1" parent="1" source="cjYBByrVhoPnJ-2IZSXI-39" target="cjYBByrVhoPnJ-2IZSXI-97">
          <mxGeometry relative="1" as="geometry" />
        </mxCell>
        <mxCell id="cjYBByrVhoPnJ-2IZSXI-39" value="DESPACHA" style="rhombus;whiteSpace=wrap;html=1;fontSize=26;fillColor=#1ba1e2;fontColor=#ffffff;strokeColor=#006EAF;" vertex="1" parent="1">
          <mxGeometry x="655.5" y="-490" width="190" height="110" as="geometry" />
        </mxCell>
        <mxCell id="cjYBByrVhoPnJ-2IZSXI-40" style="edgeStyle=orthogonalEdgeStyle;rounded=0;orthogonalLoop=1;jettySize=auto;html=1;exitX=0;exitY=0.5;exitDx=0;exitDy=0;entryX=0.75;entryY=0;entryDx=0;entryDy=0;strokeWidth=3;endArrow=none;startFill=0;fontSize=26;" edge="1" parent="1" source="cjYBByrVhoPnJ-2IZSXI-41" target="cjYBByrVhoPnJ-2IZSXI-50">
          <mxGeometry relative="1" as="geometry">
            <mxPoint x="1035.5" y="-465" as="targetPoint" />
          </mxGeometry>
        </mxCell>
        <mxCell id="cjYBByrVhoPnJ-2IZSXI-41" value="Direccion del destinatario" style="ellipse;whiteSpace=wrap;html=1;fontSize=26;fillColor=#a0522d;fontColor=#ffffff;strokeColor=#6D1F00;" vertex="1" parent="1">
          <mxGeometry x="1107.5" y="-635" width="338" height="50" as="geometry" />
        </mxCell>
        <mxCell id="cjYBByrVhoPnJ-2IZSXI-42" style="edgeStyle=orthogonalEdgeStyle;rounded=0;orthogonalLoop=1;jettySize=auto;html=1;exitX=0;exitY=0.5;exitDx=0;exitDy=0;entryX=1;entryY=0;entryDx=0;entryDy=0;strokeWidth=3;endArrow=none;startFill=0;fontSize=26;" edge="1" parent="1" source="cjYBByrVhoPnJ-2IZSXI-43" target="cjYBByrVhoPnJ-2IZSXI-50">
          <mxGeometry relative="1" as="geometry">
            <mxPoint x="1035.5" y="-450" as="targetPoint" />
          </mxGeometry>
        </mxCell>
        <mxCell id="cjYBByrVhoPnJ-2IZSXI-43" value="descripcion" style="ellipse;whiteSpace=wrap;html=1;fontSize=26;fillColor=#a0522d;fontColor=#ffffff;strokeColor=#6D1F00;" vertex="1" parent="1">
          <mxGeometry x="1095.5" y="-570" width="160" height="40" as="geometry" />
        </mxCell>
        <mxCell id="cjYBByrVhoPnJ-2IZSXI-44" value="&lt;u&gt;Codigo de paquete&lt;/u&gt;" style="ellipse;whiteSpace=wrap;html=1;fontSize=26;fillColor=#a0522d;fontColor=#ffffff;strokeColor=#6D1F00;" vertex="1" parent="1">
          <mxGeometry x="1095.5" y="-505" width="260" height="50" as="geometry" />
        </mxCell>
        <mxCell id="cjYBByrVhoPnJ-2IZSXI-45" style="edgeStyle=orthogonalEdgeStyle;rounded=0;orthogonalLoop=1;jettySize=auto;html=1;exitX=0;exitY=0.5;exitDx=0;exitDy=0;entryX=1;entryY=0.75;entryDx=0;entryDy=0;strokeWidth=3;endArrow=none;startFill=0;fontSize=26;" edge="1" parent="1" source="cjYBByrVhoPnJ-2IZSXI-46" target="cjYBByrVhoPnJ-2IZSXI-50">
          <mxGeometry relative="1" as="geometry" />
        </mxCell>
        <mxCell id="cjYBByrVhoPnJ-2IZSXI-46" value="Provincia de destino" style="ellipse;whiteSpace=wrap;html=1;fontSize=26;fillColor=#a0522d;fontColor=#ffffff;strokeColor=#6D1F00;" vertex="1" parent="1">
          <mxGeometry x="1085.5" y="-445" width="280" height="50" as="geometry" />
        </mxCell>
        <mxCell id="cjYBByrVhoPnJ-2IZSXI-47" value="&lt;font&gt;(1,1)&lt;/font&gt;" style="text;html=1;align=center;verticalAlign=middle;resizable=0;points=[];autosize=1;strokeColor=none;fillColor=none;fontSize=26;" vertex="1" parent="1">
          <mxGeometry x="595.5" y="-485" width="80" height="40" as="geometry" />
        </mxCell>
        <mxCell id="cjYBByrVhoPnJ-2IZSXI-48" value="&lt;font&gt;(1,N)&lt;/font&gt;" style="text;html=1;align=center;verticalAlign=middle;resizable=0;points=[];autosize=1;strokeColor=none;fillColor=none;fontSize=26;" vertex="1" parent="1">
          <mxGeometry x="815.5" y="-485" width="80" height="40" as="geometry" />
        </mxCell>
        <mxCell id="cjYBByrVhoPnJ-2IZSXI-49" value="&lt;div&gt;&lt;span style=&quot;background-color: transparent; color: light-dark(rgb(0, 0, 0), rgb(255, 255, 255));&quot;&gt;1:N&lt;/span&gt;&lt;/div&gt;" style="text;html=1;align=center;verticalAlign=middle;resizable=0;points=[];autosize=1;strokeColor=none;fillColor=none;fontSize=26;" vertex="1" parent="1">
          <mxGeometry x="720.5" y="-535" width="60" height="40" as="geometry" />
        </mxCell>
        <mxCell id="cjYBByrVhoPnJ-2IZSXI-50" value="PAQUETE" style="rounded=0;whiteSpace=wrap;html=1;fontSize=26;fillColor=#60a917;fontColor=#ffffff;strokeColor=#2D7600;" vertex="1" parent="1">
          <mxGeometry x="895.5" y="-465" width="140" height="60" as="geometry" />
        </mxCell>
        <mxCell id="cjYBByrVhoPnJ-2IZSXI-51" value="PROVINCIA" style="rounded=0;whiteSpace=wrap;html=1;fontSize=26;fillColor=#60a917;fontColor=#ffffff;strokeColor=#2D7600;" vertex="1" parent="1">
          <mxGeometry x="895.5" y="-149" width="160" height="60" as="geometry" />
        </mxCell>
        <mxCell id="cjYBByrVhoPnJ-2IZSXI-52" style="edgeStyle=orthogonalEdgeStyle;rounded=0;orthogonalLoop=1;jettySize=auto;html=1;exitX=0;exitY=0.5;exitDx=0;exitDy=0;entryX=1;entryY=0.42;entryDx=0;entryDy=0;entryPerimeter=0;strokeWidth=3;endArrow=none;startFill=0;fontSize=26;" edge="1" parent="1" source="cjYBByrVhoPnJ-2IZSXI-44" target="cjYBByrVhoPnJ-2IZSXI-50">
          <mxGeometry relative="1" as="geometry" />
        </mxCell>
        <mxCell id="cjYBByrVhoPnJ-2IZSXI-54" value="&lt;u&gt;Codigo de provincia&lt;/u&gt;" style="ellipse;whiteSpace=wrap;html=1;fontSize=26;fillColor=#a0522d;fontColor=#ffffff;strokeColor=#6D1F00;" vertex="1" parent="1">
          <mxGeometry x="1142.5" y="-155" width="263" height="51" as="geometry" />
        </mxCell>
        <mxCell id="cjYBByrVhoPnJ-2IZSXI-55" value="Nombre" style="ellipse;whiteSpace=wrap;html=1;fontSize=26;fillColor=#a0522d;fontColor=#ffffff;strokeColor=#6D1F00;" vertex="1" parent="1">
          <mxGeometry x="1142.5" y="-89" width="128" height="41" as="geometry" />
        </mxCell>
        <mxCell id="cjYBByrVhoPnJ-2IZSXI-59" value="LLEGA" style="rhombus;whiteSpace=wrap;html=1;fontSize=26;fillColor=#1ba1e2;fontColor=#ffffff;strokeColor=#006EAF;" vertex="1" parent="1">
          <mxGeometry x="890.5" y="-315" width="150" height="81" as="geometry" />
        </mxCell>
        <mxCell id="cjYBByrVhoPnJ-2IZSXI-60" style="edgeStyle=orthogonalEdgeStyle;rounded=0;orthogonalLoop=1;jettySize=auto;html=1;exitX=0;exitY=0.5;exitDx=0;exitDy=0;entryX=1.011;entryY=0.503;entryDx=0;entryDy=0;entryPerimeter=0;strokeWidth=3;endArrow=none;startFill=0;fontSize=26;" edge="1" parent="1" source="cjYBByrVhoPnJ-2IZSXI-55" target="cjYBByrVhoPnJ-2IZSXI-51">
          <mxGeometry relative="1" as="geometry" />
        </mxCell>
        <mxCell id="cjYBByrVhoPnJ-2IZSXI-62" style="edgeStyle=orthogonalEdgeStyle;rounded=0;orthogonalLoop=1;jettySize=auto;html=1;exitX=0.5;exitY=1;exitDx=0;exitDy=0;entryX=0.437;entryY=0.025;entryDx=0;entryDy=0;entryPerimeter=0;endArrow=none;startFill=0;strokeWidth=3;fontSize=26;" edge="1" parent="1" source="cjYBByrVhoPnJ-2IZSXI-59" target="cjYBByrVhoPnJ-2IZSXI-51">
          <mxGeometry relative="1" as="geometry" />
        </mxCell>
        <mxCell id="cjYBByrVhoPnJ-2IZSXI-63" style="edgeStyle=orthogonalEdgeStyle;rounded=0;orthogonalLoop=1;jettySize=auto;html=1;exitX=0.5;exitY=1;exitDx=0;exitDy=0;entryX=0.5;entryY=0;entryDx=0;entryDy=0;endArrow=none;startFill=0;strokeWidth=3;fontSize=26;" edge="1" parent="1" source="cjYBByrVhoPnJ-2IZSXI-50" target="cjYBByrVhoPnJ-2IZSXI-59">
          <mxGeometry relative="1" as="geometry">
            <mxPoint x="975.5" y="-224" as="sourcePoint" />
            <mxPoint x="975.5" y="-137" as="targetPoint" />
          </mxGeometry>
        </mxCell>
        <mxCell id="cjYBByrVhoPnJ-2IZSXI-64" value="&lt;font&gt;(1,1)&lt;/font&gt;" style="text;html=1;align=center;verticalAlign=middle;resizable=0;points=[];autosize=1;strokeColor=none;fillColor=none;fontSize=26;" vertex="1" parent="1">
          <mxGeometry x="970.5" y="-195" width="80" height="40" as="geometry" />
        </mxCell>
        <mxCell id="cjYBByrVhoPnJ-2IZSXI-65" value="&lt;font&gt;(1,M)&lt;/font&gt;" style="text;html=1;align=center;verticalAlign=middle;resizable=0;points=[];autosize=1;strokeColor=none;fillColor=none;fontSize=26;" vertex="1" parent="1">
          <mxGeometry x="970.5" y="-365" width="80" height="40" as="geometry" />
        </mxCell>
        <mxCell id="cjYBByrVhoPnJ-2IZSXI-66" value="&lt;font&gt;M:1&lt;/font&gt;" style="text;html=1;align=center;verticalAlign=middle;resizable=0;points=[];autosize=1;strokeColor=none;fillColor=none;fontSize=26;" vertex="1" parent="1">
          <mxGeometry x="1072.5" y="-305" width="70" height="40" as="geometry" />
        </mxCell>
        <mxCell id="cjYBByrVhoPnJ-2IZSXI-67" value="Enunciado:&#xa;&#xa;“Esta es una empresa de transportes que reparte paquetes por toda Argentina. &#xa;&#xa;Los encargados de llevar los paquetes son los camioneros, de los que se quiere guardar el DNI, nombre, teléfono, dirección, salario mensual y provincia en la que vive. &#xa;&#xa;De los paquetes transportados interesa conocer el código de paquete, descripción, provincia de destino y dirección del destinatario. &#xa;&#xa;Un camionero distribuye muchos paquetes, y un paquete sólo puede ser distribuido por un camionero. &#xa;&#xa;De las provincias a las que llegan los paquetes interesa guardar el código de provincia y el nombre. &#xa;&#xa;Un paquete sólo puede llegar a una provincia. Sin embargo, a una provincia pueden llegar varios paquetes. &#xa;&#xa;De los camiones que utilizan los camioneros, interesa almacenar la patente, la marca, el modelo, tipo y potencia. &#xa;&#xa;Un camionero puede conducir diferentes camiones en fechas diferentes, y un camión puede ser" style="text;whiteSpace=wrap;fontSize=26;" vertex="1" parent="1">
          <mxGeometry x="-800" y="-660" width="730" height="685" as="geometry" />
        </mxCell>
        <mxCell id="cjYBByrVhoPnJ-2IZSXI-68" value="CAMION" style="rounded=0;whiteSpace=wrap;html=1;fontSize=26;fillColor=#60a917;fontColor=#ffffff;strokeColor=#2D7600;" vertex="1" parent="1">
          <mxGeometry x="439" y="-110" width="147" height="60" as="geometry" />
        </mxCell>
        <mxCell id="cjYBByrVhoPnJ-2IZSXI-72" value="Ejercicios 02&#xa;Nos solicitan confeccionar la base de datos para un cliente. Realizar el modelo entidad-relación y luego el diagrama de tablas.&#xa;Resolver el DER respetando las siguientes convenciones:&#xa;·       Las entidades deben escribirse en MAYUSCULA.&#xa;·       Los atributos deben escribirse en formato oración, la primera letra en mayúscula y luego minúsculas “Ejemplo oración”.&#xa;·       Rombos de relación en MAYUSCULAS&#xa;Resolver el diagrama de tablas respetando las siguientes convenciones:&#xa;·       Las tablas deben escribirse en MAYUSCULA.&#xa;·       Los atributos deben escribirse en formato lower camel case. “ejemploLowerCamelCase”&#xa;·       En las tablas especificar tipo de dato y largo máximo." style="text;whiteSpace=wrap;fontSize=26;" vertex="1" parent="1">
          <mxGeometry x="-810" y="-1050" width="1460" height="310" as="geometry" />
        </mxCell>
        <mxCell id="cjYBByrVhoPnJ-2IZSXI-74" style="edgeStyle=orthogonalEdgeStyle;rounded=0;orthogonalLoop=1;jettySize=auto;html=1;exitX=1;exitY=0;exitDx=0;exitDy=0;entryX=0.25;entryY=1;entryDx=0;entryDy=0;strokeWidth=3;endArrow=none;startFill=0;fontSize=26;" edge="1" parent="1" source="cjYBByrVhoPnJ-2IZSXI-34" target="cjYBByrVhoPnJ-2IZSXI-27">
          <mxGeometry relative="1" as="geometry">
            <mxPoint x="385.5" y="-342.51" as="sourcePoint" />
            <mxPoint x="443.5" y="-383.51" as="targetPoint" />
          </mxGeometry>
        </mxCell>
        <mxCell id="cjYBByrVhoPnJ-2IZSXI-76" style="edgeStyle=orthogonalEdgeStyle;rounded=0;orthogonalLoop=1;jettySize=auto;html=1;exitX=0;exitY=0.5;exitDx=0;exitDy=0;entryX=1.006;entryY=0.31;entryDx=0;entryDy=0;entryPerimeter=0;strokeWidth=3;endArrow=none;startFill=0;fontSize=26;" edge="1" parent="1" source="cjYBByrVhoPnJ-2IZSXI-54" target="cjYBByrVhoPnJ-2IZSXI-51">
          <mxGeometry relative="1" as="geometry">
            <mxPoint x="1152.5" y="-53" as="sourcePoint" />
            <mxPoint x="1067.5" y="-109" as="targetPoint" />
          </mxGeometry>
        </mxCell>
        <mxCell id="cjYBByrVhoPnJ-2IZSXI-85" style="edgeStyle=orthogonalEdgeStyle;rounded=0;orthogonalLoop=1;jettySize=auto;html=1;exitX=1;exitY=0;exitDx=0;exitDy=0;entryX=0;entryY=0.5;entryDx=0;entryDy=0;endArrow=none;startFill=0;strokeWidth=3;" edge="1" parent="1" source="cjYBByrVhoPnJ-2IZSXI-77" target="cjYBByrVhoPnJ-2IZSXI-68">
          <mxGeometry relative="1" as="geometry" />
        </mxCell>
        <mxCell id="cjYBByrVhoPnJ-2IZSXI-77" value="&lt;u&gt;Patente&lt;/u&gt;" style="ellipse;whiteSpace=wrap;html=1;fontSize=26;fillColor=#a0522d;fontColor=#ffffff;strokeColor=#6D1F00;" vertex="1" parent="1">
          <mxGeometry x="265.5" y="-85" width="150" height="32" as="geometry" />
        </mxCell>
        <mxCell id="cjYBByrVhoPnJ-2IZSXI-78" value="Marca" style="ellipse;whiteSpace=wrap;html=1;fontSize=26;fillColor=#a0522d;fontColor=#ffffff;strokeColor=#6D1F00;" vertex="1" parent="1">
          <mxGeometry x="348.5" y="-25" width="110" height="40" as="geometry" />
        </mxCell>
        <mxCell id="cjYBByrVhoPnJ-2IZSXI-89" style="edgeStyle=orthogonalEdgeStyle;rounded=0;orthogonalLoop=1;jettySize=auto;html=1;exitX=0;exitY=0;exitDx=0;exitDy=0;entryX=1;entryY=0.5;entryDx=0;entryDy=0;endArrow=none;startFill=0;strokeWidth=3;" edge="1" parent="1" source="cjYBByrVhoPnJ-2IZSXI-79" target="cjYBByrVhoPnJ-2IZSXI-68">
          <mxGeometry relative="1" as="geometry" />
        </mxCell>
        <mxCell id="cjYBByrVhoPnJ-2IZSXI-79" value="Modelo" style="ellipse;whiteSpace=wrap;html=1;fontSize=26;fillColor=#a0522d;fontColor=#ffffff;strokeColor=#6D1F00;" vertex="1" parent="1">
          <mxGeometry x="635.5" y="-85" width="120" height="37" as="geometry" />
        </mxCell>
        <mxCell id="cjYBByrVhoPnJ-2IZSXI-80" value="Tipo" style="ellipse;whiteSpace=wrap;html=1;fontSize=26;fillColor=#a0522d;fontColor=#ffffff;strokeColor=#6D1F00;" vertex="1" parent="1">
          <mxGeometry x="475.5" y="-15" width="90" height="40" as="geometry" />
        </mxCell>
        <mxCell id="cjYBByrVhoPnJ-2IZSXI-81" value="Potencia" style="ellipse;whiteSpace=wrap;html=1;fontSize=26;fillColor=#a0522d;fontColor=#ffffff;strokeColor=#6D1F00;" vertex="1" parent="1">
          <mxGeometry x="575.5" y="-25" width="129.5" height="40" as="geometry" />
        </mxCell>
        <mxCell id="cjYBByrVhoPnJ-2IZSXI-84" style="edgeStyle=orthogonalEdgeStyle;rounded=0;orthogonalLoop=1;jettySize=auto;html=1;exitX=0.5;exitY=1;exitDx=0;exitDy=0;entryX=0.5;entryY=0;entryDx=0;entryDy=0;endArrow=none;startFill=0;strokeWidth=3;" edge="1" parent="1" source="cjYBByrVhoPnJ-2IZSXI-82" target="cjYBByrVhoPnJ-2IZSXI-68">
          <mxGeometry relative="1" as="geometry" />
        </mxCell>
        <mxCell id="cjYBByrVhoPnJ-2IZSXI-96" style="edgeStyle=orthogonalEdgeStyle;rounded=0;orthogonalLoop=1;jettySize=auto;html=1;exitX=0;exitY=0.5;exitDx=0;exitDy=0;entryX=1;entryY=0.5;entryDx=0;entryDy=0;endArrow=none;startFill=0;strokeWidth=3;" edge="1" parent="1" source="cjYBByrVhoPnJ-2IZSXI-82" target="cjYBByrVhoPnJ-2IZSXI-95">
          <mxGeometry relative="1" as="geometry" />
        </mxCell>
        <mxCell id="cjYBByrVhoPnJ-2IZSXI-82" value="MANEJA" style="rhombus;whiteSpace=wrap;html=1;fontSize=26;fillColor=#1ba1e2;fontColor=#ffffff;strokeColor=#006EAF;" vertex="1" parent="1">
          <mxGeometry x="417.5" y="-295" width="190" height="110" as="geometry" />
        </mxCell>
        <mxCell id="cjYBByrVhoPnJ-2IZSXI-86" style="edgeStyle=orthogonalEdgeStyle;rounded=0;orthogonalLoop=1;jettySize=auto;html=1;exitX=1;exitY=0;exitDx=0;exitDy=0;entryX=0.13;entryY=1.006;entryDx=0;entryDy=0;entryPerimeter=0;endArrow=none;startFill=0;strokeWidth=3;" edge="1" parent="1" source="cjYBByrVhoPnJ-2IZSXI-78" target="cjYBByrVhoPnJ-2IZSXI-68">
          <mxGeometry relative="1" as="geometry" />
        </mxCell>
        <mxCell id="cjYBByrVhoPnJ-2IZSXI-87" style="edgeStyle=orthogonalEdgeStyle;rounded=0;orthogonalLoop=1;jettySize=auto;html=1;exitX=0.5;exitY=0;exitDx=0;exitDy=0;entryX=0.646;entryY=0.997;entryDx=0;entryDy=0;entryPerimeter=0;endArrow=none;startFill=0;strokeWidth=3;" edge="1" parent="1" source="cjYBByrVhoPnJ-2IZSXI-80" target="cjYBByrVhoPnJ-2IZSXI-68">
          <mxGeometry relative="1" as="geometry" />
        </mxCell>
        <mxCell id="cjYBByrVhoPnJ-2IZSXI-88" style="edgeStyle=orthogonalEdgeStyle;rounded=0;orthogonalLoop=1;jettySize=auto;html=1;exitX=0;exitY=0;exitDx=0;exitDy=0;entryX=0.905;entryY=0.997;entryDx=0;entryDy=0;entryPerimeter=0;endArrow=none;startFill=0;strokeWidth=3;" edge="1" parent="1" source="cjYBByrVhoPnJ-2IZSXI-81" target="cjYBByrVhoPnJ-2IZSXI-68">
          <mxGeometry relative="1" as="geometry" />
        </mxCell>
        <mxCell id="cjYBByrVhoPnJ-2IZSXI-90" value="&lt;font&gt;(1,M)&lt;/font&gt;" style="text;html=1;align=center;verticalAlign=middle;resizable=0;points=[];autosize=1;strokeColor=none;fillColor=none;fontSize=26;" vertex="1" parent="1">
          <mxGeometry x="515.5" y="-395" width="80" height="40" as="geometry" />
        </mxCell>
        <mxCell id="cjYBByrVhoPnJ-2IZSXI-91" value="&lt;font&gt;(1,N)&lt;/font&gt;" style="text;html=1;align=center;verticalAlign=middle;resizable=0;points=[];autosize=1;strokeColor=none;fillColor=none;fontSize=26;" vertex="1" parent="1">
          <mxGeometry x="515.5" y="-155" width="80" height="40" as="geometry" />
        </mxCell>
        <mxCell id="cjYBByrVhoPnJ-2IZSXI-92" value="&lt;div&gt;&lt;span style=&quot;background-color: transparent; color: light-dark(rgb(0, 0, 0), rgb(255, 255, 255));&quot;&gt;M:N&lt;/span&gt;&lt;/div&gt;" style="text;html=1;align=center;verticalAlign=middle;resizable=0;points=[];autosize=1;strokeColor=none;fillColor=none;fontSize=26;" vertex="1" parent="1">
          <mxGeometry x="635" y="-255" width="70" height="40" as="geometry" />
        </mxCell>
        <mxCell id="cjYBByrVhoPnJ-2IZSXI-94" style="edgeStyle=orthogonalEdgeStyle;rounded=0;orthogonalLoop=1;jettySize=auto;html=1;exitX=1;exitY=0.5;exitDx=0;exitDy=0;entryX=0.5;entryY=0;entryDx=0;entryDy=0;endArrow=none;startFill=0;strokeWidth=3;" edge="1" parent="1" source="cjYBByrVhoPnJ-2IZSXI-93" target="cjYBByrVhoPnJ-2IZSXI-27">
          <mxGeometry relative="1" as="geometry" />
        </mxCell>
        <mxCell id="cjYBByrVhoPnJ-2IZSXI-93" value="Provincia en la que vive" style="ellipse;whiteSpace=wrap;html=1;fontSize=26;fillColor=#a0522d;fontColor=#ffffff;strokeColor=#6D1F00;" vertex="1" parent="1">
          <mxGeometry x="120" y="-635" width="337" height="50" as="geometry" />
        </mxCell>
        <mxCell id="cjYBByrVhoPnJ-2IZSXI-95" value="Fecha" style="ellipse;whiteSpace=wrap;html=1;fontSize=26;fillColor=#a0522d;fontColor=#ffffff;strokeColor=#6D1F00;" vertex="1" parent="1">
          <mxGeometry x="275.5" y="-235" width="89" height="50" as="geometry" />
        </mxCell>
        <mxCell id="cjYBByrVhoPnJ-2IZSXI-97" value="Fecha" style="ellipse;whiteSpace=wrap;html=1;fontSize=26;fillColor=#a0522d;fontColor=#ffffff;strokeColor=#6D1F00;" vertex="1" parent="1">
          <mxGeometry x="705" y="-343.5" width="89" height="50" as="geometry" />
        </mxCell>
        <mxCell id="cjYBByrVhoPnJ-2IZSXI-169" value="" style="shape=tableRow;horizontal=0;startSize=0;swimlaneHead=0;swimlaneBody=0;fillColor=none;collapsible=0;dropTarget=0;points=[[0,0.5],[1,0.5]];portConstraint=eastwest;top=0;left=0;right=0;bottom=0;fontSize=26;" vertex="1" parent="1">
          <mxGeometry x="740" y="-600" width="270" height="35" as="geometry" />
        </mxCell>
        <mxCell id="cjYBByrVhoPnJ-2IZSXI-170" value="" style="shape=partialRectangle;connectable=0;fillColor=none;top=0;left=0;bottom=0;right=0;editable=1;overflow=hidden;whiteSpace=wrap;html=1;fontSize=26;" vertex="1" parent="cjYBByrVhoPnJ-2IZSXI-169">
          <mxGeometry width="40" height="35" as="geometry">
            <mxRectangle width="40" height="35" as="alternateBounds" />
          </mxGeometry>
        </mxCell>
        <mxCell id="cjYBByrVhoPnJ-2IZSXI-251" value="Row 3" style="shape=rectangle;fillColor=#FFFFFF;strokeColor=#000000;fontSize=20;" vertex="1" parent="1">
          <mxGeometry x="985.5" y="-975.5" width="180" height="30" as="geometry" />
        </mxCell>
        <mxCell id="cjYBByrVhoPnJ-2IZSXI-252" value="date" style="shape=rectangle;fillColor=#FFFFFF;strokeColor=#000000;fontSize=20;" vertex="1" parent="1">
          <mxGeometry x="1165.5" y="-975.5" width="180" height="30" as="geometry" />
        </mxCell>
        <mxCell id="cjYBByrVhoPnJ-2IZSXI-253" value="ENTIDADES" style="shape=rectangle;fillColor=#FFFFFF;strokeColor=#000000;fontSize=20;align=center;fontStyle=1;" vertex="1" parent="1">
          <mxGeometry x="845.5" y="-985.5" width="540" height="30" as="geometry" />
        </mxCell>
        <mxCell id="cjYBByrVhoPnJ-2IZSXI-254" value="PK" style="shape=rectangle;fillColor=#FFFFFF;strokeColor=#000000;fontSize=20;align=center;fontStyle=0;" vertex="1" parent="1">
          <mxGeometry x="845.5" y="-955.5" width="180" height="30" as="geometry" />
        </mxCell>
        <mxCell id="cjYBByrVhoPnJ-2IZSXI-255" value="id_" style="shape=rectangle;fillColor=#FFFFFF;strokeColor=#000000;fontSize=20;align=center;fontStyle=0;" vertex="1" parent="1">
          <mxGeometry x="1025.5" y="-955.5" width="180" height="30" as="geometry" />
        </mxCell>
        <mxCell id="cjYBByrVhoPnJ-2IZSXI-256" value="INT(8)" style="shape=rectangle;fillColor=#FFFFFF;strokeColor=#000000;fontSize=20;align=center;fontStyle=0;" vertex="1" parent="1">
          <mxGeometry x="1205.5" y="-955.5" width="180" height="30" as="geometry" />
        </mxCell>
        <mxCell id="cjYBByrVhoPnJ-2IZSXI-257" value="" style="shape=rectangle;fillColor=#FFFFFF;strokeColor=#000000;fontSize=20;align=center;" vertex="1" parent="1">
          <mxGeometry x="845.5" y="-925.5" width="180" height="30" as="geometry" />
        </mxCell>
        <mxCell id="cjYBByrVhoPnJ-2IZSXI-258" value="" style="shape=rectangle;fillColor=#FFFFFF;strokeColor=#000000;fontSize=20;align=center;fontStyle=0" vertex="1" parent="1">
          <mxGeometry x="1025.5" y="-925.5" width="180" height="30" as="geometry" />
        </mxCell>
        <mxCell id="cjYBByrVhoPnJ-2IZSXI-259" value="" style="shape=rectangle;fillColor=#FFFFFF;strokeColor=#000000;fontSize=20;align=center;fontStyle=0" vertex="1" parent="1">
          <mxGeometry x="1205.5" y="-925.5" width="180" height="30" as="geometry" />
        </mxCell>
        <mxCell id="cjYBByrVhoPnJ-2IZSXI-260" value="" style="shape=rectangle;fillColor=#FFFFFF;strokeColor=#000000;fontSize=20;align=center;" vertex="1" parent="1">
          <mxGeometry x="845.5" y="-895.5" width="180" height="30" as="geometry" />
        </mxCell>
        <mxCell id="cjYBByrVhoPnJ-2IZSXI-261" value="" style="shape=rectangle;fillColor=#FFFFFF;strokeColor=#000000;fontSize=20;align=center;fontStyle=0" vertex="1" parent="1">
          <mxGeometry x="1025.5" y="-895.5" width="180" height="30" as="geometry" />
        </mxCell>
        <mxCell id="cjYBByrVhoPnJ-2IZSXI-262" value="" style="shape=rectangle;fillColor=#FFFFFF;strokeColor=#000000;fontSize=20;align=center;fontStyle=0" vertex="1" parent="1">
          <mxGeometry x="1205.5" y="-895.5" width="180" height="30" as="geometry" />
        </mxCell>
        <mxCell id="cjYBByrVhoPnJ-2IZSXI-263" value="" style="shape=rectangle;fillColor=#FFFFFF;strokeColor=#000000;fontSize=20;align=center;" vertex="1" parent="1">
          <mxGeometry x="845.5" y="-865.5" width="180" height="30" as="geometry" />
        </mxCell>
        <mxCell id="cjYBByrVhoPnJ-2IZSXI-264" value="" style="shape=rectangle;fillColor=#FFFFFF;strokeColor=#000000;fontSize=20;align=center;fontStyle=0" vertex="1" parent="1">
          <mxGeometry x="1025.5" y="-865.5" width="180" height="30" as="geometry" />
        </mxCell>
        <mxCell id="cjYBByrVhoPnJ-2IZSXI-265" value="" style="shape=rectangle;fillColor=#FFFFFF;strokeColor=#000000;fontSize=20;align=center;fontStyle=0" vertex="1" parent="1">
          <mxGeometry x="1205.5" y="-865.5" width="180" height="30" as="geometry" />
        </mxCell>
        <mxCell id="cjYBByrVhoPnJ-2IZSXI-266" value="" style="shape=rectangle;fillColor=#FFFFFF;strokeColor=#000000;fontSize=20;align=center;" vertex="1" parent="1">
          <mxGeometry x="845.5" y="-834.5" width="180" height="30" as="geometry" />
        </mxCell>
        <mxCell id="cjYBByrVhoPnJ-2IZSXI-267" value="" style="shape=rectangle;fillColor=#FFFFFF;strokeColor=#000000;fontSize=20;align=center;fontStyle=0" vertex="1" parent="1">
          <mxGeometry x="1025.5" y="-834.5" width="180" height="30" as="geometry" />
        </mxCell>
        <mxCell id="cjYBByrVhoPnJ-2IZSXI-268" value="" style="shape=rectangle;fillColor=#FFFFFF;strokeColor=#000000;fontSize=20;align=center;fontStyle=0" vertex="1" parent="1">
          <mxGeometry x="1205.5" y="-834.5" width="180" height="30" as="geometry" />
        </mxCell>
        <mxCell id="cjYBByrVhoPnJ-2IZSXI-299" value="" style="endArrow=ERmany;html=1;rounded=0;entryX=0;entryY=0.5;entryDx=0;entryDy=0;exitX=1;exitY=0.5;exitDx=0;exitDy=0;endFill=0;startArrow=ERone;startFill=0;strokeWidth=2;targetPerimeterSpacing=3;sourcePerimeterSpacing=2;endSize=15;startSize=15;" edge="1" parent="1" source="cjYBByrVhoPnJ-2IZSXI-290" target="cjYBByrVhoPnJ-2IZSXI-292">
          <mxGeometry width="50" height="50" relative="1" as="geometry">
            <mxPoint x="460" y="373" as="sourcePoint" />
            <mxPoint x="510" y="323" as="targetPoint" />
            <Array as="points">
              <mxPoint x="445" y="348" />
              <mxPoint x="445" y="285" />
            </Array>
          </mxGeometry>
        </mxCell>
        <mxCell id="cjYBByrVhoPnJ-2IZSXI-300" value="" style="group" vertex="1" connectable="0" parent="1">
          <mxGeometry x="465" y="90" width="470" height="210" as="geometry" />
        </mxCell>
        <mxCell id="cjYBByrVhoPnJ-2IZSXI-270" value="Row 3" style="shape=rectangle;fillColor=#FFFFFF;strokeColor=#000000;fontSize=20;container=0;" vertex="1" parent="cjYBByrVhoPnJ-2IZSXI-300">
          <mxGeometry x="121.85185185185185" y="69.90566037735852" width="156.66666666666666" height="29.71698113207547" as="geometry" />
        </mxCell>
        <mxCell id="cjYBByrVhoPnJ-2IZSXI-271" value="date" style="shape=rectangle;fillColor=#FFFFFF;strokeColor=#000000;fontSize=20;container=0;" vertex="1" parent="cjYBByrVhoPnJ-2IZSXI-300">
          <mxGeometry x="278.5185185185185" y="69.90566037735852" width="156.66666666666666" height="29.71698113207547" as="geometry" />
        </mxCell>
        <mxCell id="cjYBByrVhoPnJ-2IZSXI-272" value="CAMIONEROPAQUETE (DESPACHA)" style="shape=rectangle;fillColor=#FFFFFF;strokeColor=#000000;fontSize=20;align=center;fontStyle=1;container=0;" vertex="1" parent="cjYBByrVhoPnJ-2IZSXI-300">
          <mxGeometry y="60" width="470" height="29.71698113207547" as="geometry" />
        </mxCell>
        <mxCell id="cjYBByrVhoPnJ-2IZSXI-273" value="PK" style="shape=rectangle;fillColor=#FFFFFF;strokeColor=#000000;fontSize=20;align=center;fontStyle=0;container=0;" vertex="1" parent="cjYBByrVhoPnJ-2IZSXI-300">
          <mxGeometry y="89.71698113207549" width="69.62962962962963" height="29.71698113207547" as="geometry" />
        </mxCell>
        <mxCell id="cjYBByrVhoPnJ-2IZSXI-274" value="id_camionero_paquete" style="shape=rectangle;fillColor=#FFFFFF;strokeColor=#000000;fontSize=20;align=center;fontStyle=0;container=0;" vertex="1" parent="cjYBByrVhoPnJ-2IZSXI-300">
          <mxGeometry x="69.62962962962962" y="89.71698113207549" width="243.7037037037037" height="29.71698113207547" as="geometry" />
        </mxCell>
        <mxCell id="cjYBByrVhoPnJ-2IZSXI-275" value="INT(12)" style="shape=rectangle;fillColor=#FFFFFF;strokeColor=#000000;fontSize=20;align=center;fontStyle=0;container=0;" vertex="1" parent="cjYBByrVhoPnJ-2IZSXI-300">
          <mxGeometry x="313.33333333333326" y="89.71698113207549" width="156.66666666666666" height="29.71698113207547" as="geometry" />
        </mxCell>
        <mxCell id="cjYBByrVhoPnJ-2IZSXI-276" value="FK" style="shape=rectangle;fillColor=#FFFFFF;strokeColor=#000000;fontSize=20;align=center;container=0;" vertex="1" parent="cjYBByrVhoPnJ-2IZSXI-300">
          <mxGeometry y="119.43396226415092" width="69.62962962962963" height="29.71698113207547" as="geometry" />
        </mxCell>
        <mxCell id="cjYBByrVhoPnJ-2IZSXI-277" value="id_paquete" style="shape=rectangle;fillColor=#FFFFFF;strokeColor=#000000;fontSize=20;align=center;fontStyle=0;container=0;" vertex="1" parent="cjYBByrVhoPnJ-2IZSXI-300">
          <mxGeometry x="69.62962962962962" y="119.43396226415092" width="243.7037037037037" height="29.71698113207547" as="geometry" />
        </mxCell>
        <mxCell id="cjYBByrVhoPnJ-2IZSXI-278" value="INT(12)" style="shape=rectangle;fillColor=#FFFFFF;strokeColor=#000000;fontSize=20;align=center;fontStyle=0;container=0;" vertex="1" parent="cjYBByrVhoPnJ-2IZSXI-300">
          <mxGeometry x="313.33333333333326" y="119.43396226415092" width="156.66666666666666" height="29.71698113207547" as="geometry" />
        </mxCell>
        <mxCell id="cjYBByrVhoPnJ-2IZSXI-285" value="" style="shape=rectangle;fillColor=#FFFFFF;strokeColor=#000000;fontSize=20;align=center;container=0;" vertex="1" parent="cjYBByrVhoPnJ-2IZSXI-300">
          <mxGeometry y="149.57547169811323" width="69.62962962962963" height="29.71698113207547" as="geometry" />
        </mxCell>
        <mxCell id="cjYBByrVhoPnJ-2IZSXI-286" value="fecha" style="shape=rectangle;fillColor=#FFFFFF;strokeColor=#000000;fontSize=20;align=center;fontStyle=0;container=0;" vertex="1" parent="cjYBByrVhoPnJ-2IZSXI-300">
          <mxGeometry x="69.62962962962962" y="149.57547169811323" width="243.7037037037037" height="29.71698113207547" as="geometry" />
        </mxCell>
        <mxCell id="cjYBByrVhoPnJ-2IZSXI-287" value="DATETIME" style="shape=rectangle;fillColor=#FFFFFF;strokeColor=#000000;fontSize=20;align=center;fontStyle=0;container=0;" vertex="1" parent="cjYBByrVhoPnJ-2IZSXI-300">
          <mxGeometry x="313.33333333333326" y="149.57547169811323" width="156.66666666666666" height="29.71698113207547" as="geometry" />
        </mxCell>
        <mxCell id="cjYBByrVhoPnJ-2IZSXI-292" value="FK" style="shape=rectangle;fillColor=#FFFFFF;strokeColor=#000000;fontSize=20;align=center;container=0;" vertex="1" parent="cjYBByrVhoPnJ-2IZSXI-300">
          <mxGeometry y="180.2830188679245" width="69.62962962962963" height="29.71698113207547" as="geometry" />
        </mxCell>
        <mxCell id="cjYBByrVhoPnJ-2IZSXI-293" value="DNI_camionero" style="shape=rectangle;fillColor=#FFFFFF;strokeColor=#000000;fontSize=20;align=center;fontStyle=0;container=0;" vertex="1" parent="cjYBByrVhoPnJ-2IZSXI-300">
          <mxGeometry x="69.62962962962962" y="180.2830188679245" width="243.7037037037037" height="29.71698113207547" as="geometry" />
        </mxCell>
        <mxCell id="cjYBByrVhoPnJ-2IZSXI-294" value="INT(8)" style="shape=rectangle;fillColor=#FFFFFF;strokeColor=#000000;fontSize=20;align=center;fontStyle=0;container=0;" vertex="1" parent="cjYBByrVhoPnJ-2IZSXI-300">
          <mxGeometry x="313.33333333333326" y="180.2830188679245" width="156.66666666666666" height="29.71698113207547" as="geometry" />
        </mxCell>
        <mxCell id="cjYBByrVhoPnJ-2IZSXI-301" value="" style="group" vertex="1" connectable="0" parent="1">
          <mxGeometry x="10" y="153" width="410" height="210" as="geometry" />
        </mxCell>
        <mxCell id="cjYBByrVhoPnJ-2IZSXI-215" value="Row 3" style="shape=rectangle;fillColor=#FFFFFF;strokeColor=#000000;fontSize=20;container=0;" vertex="1" parent="cjYBByrVhoPnJ-2IZSXI-301">
          <mxGeometry x="121.85185185185182" y="9.905660377358515" width="156.6666666666666" height="29.71698113207547" as="geometry" />
        </mxCell>
        <mxCell id="cjYBByrVhoPnJ-2IZSXI-217" value="CAMIONEROS" style="shape=rectangle;fillColor=#FFFFFF;strokeColor=#000000;fontSize=20;align=center;fontStyle=1;container=0;" vertex="1" parent="cjYBByrVhoPnJ-2IZSXI-301">
          <mxGeometry width="410" height="29.72" as="geometry" />
        </mxCell>
        <mxCell id="cjYBByrVhoPnJ-2IZSXI-218" value="PK" style="shape=rectangle;fillColor=#FFFFFF;strokeColor=#000000;fontSize=20;align=center;fontStyle=0;container=0;" vertex="1" parent="cjYBByrVhoPnJ-2IZSXI-301">
          <mxGeometry y="29.71698113207549" width="69.62962962962962" height="29.71698113207547" as="geometry" />
        </mxCell>
        <mxCell id="cjYBByrVhoPnJ-2IZSXI-219" value="id_camionero" style="shape=rectangle;fillColor=#FFFFFF;strokeColor=#000000;fontSize=20;align=center;fontStyle=0;container=0;" vertex="1" parent="cjYBByrVhoPnJ-2IZSXI-301">
          <mxGeometry x="69.63" y="29.720000000000027" width="190.37" height="29.72" as="geometry" />
        </mxCell>
        <mxCell id="cjYBByrVhoPnJ-2IZSXI-220" value="INT(12)" style="shape=rectangle;fillColor=#FFFFFF;strokeColor=#000000;fontSize=20;align=center;fontStyle=0;container=0;" vertex="1" parent="cjYBByrVhoPnJ-2IZSXI-301">
          <mxGeometry x="260" y="29.720000000000027" width="150" height="29.72" as="geometry" />
        </mxCell>
        <mxCell id="cjYBByrVhoPnJ-2IZSXI-221" value="" style="shape=rectangle;fillColor=#FFFFFF;strokeColor=#000000;fontSize=20;align=center;container=0;" vertex="1" parent="cjYBByrVhoPnJ-2IZSXI-301">
          <mxGeometry y="59.43396226415092" width="69.62962962962962" height="29.71698113207547" as="geometry" />
        </mxCell>
        <mxCell id="cjYBByrVhoPnJ-2IZSXI-222" value="salarioMensual" style="shape=rectangle;fillColor=#FFFFFF;strokeColor=#000000;fontSize=20;align=center;fontStyle=0;container=0;" vertex="1" parent="cjYBByrVhoPnJ-2IZSXI-301">
          <mxGeometry x="69.63" y="59.43000000000001" width="190.37" height="29.72" as="geometry" />
        </mxCell>
        <mxCell id="cjYBByrVhoPnJ-2IZSXI-223" value="DEC(10, 2)" style="shape=rectangle;fillColor=#FFFFFF;strokeColor=#000000;fontSize=20;align=center;fontStyle=0;container=0;" vertex="1" parent="cjYBByrVhoPnJ-2IZSXI-301">
          <mxGeometry x="260" y="59.43000000000001" width="150" height="29.72" as="geometry" />
        </mxCell>
        <mxCell id="cjYBByrVhoPnJ-2IZSXI-224" value="" style="shape=rectangle;fillColor=#FFFFFF;strokeColor=#000000;fontSize=20;align=center;container=0;" vertex="1" parent="cjYBByrVhoPnJ-2IZSXI-301">
          <mxGeometry y="89.15094339622641" width="69.62962962962962" height="29.71698113207547" as="geometry" />
        </mxCell>
        <mxCell id="cjYBByrVhoPnJ-2IZSXI-225" value="provinciaResidencia" style="shape=rectangle;fillColor=#FFFFFF;strokeColor=#000000;fontSize=20;align=center;fontStyle=0;container=0;" vertex="1" parent="cjYBByrVhoPnJ-2IZSXI-301">
          <mxGeometry x="69.63" y="89.14999999999998" width="190.37" height="29.72" as="geometry" />
        </mxCell>
        <mxCell id="cjYBByrVhoPnJ-2IZSXI-226" value="VARCHAR(15)" style="shape=rectangle;fillColor=#FFFFFF;strokeColor=#000000;fontSize=20;align=center;fontStyle=0;container=0;" vertex="1" parent="cjYBByrVhoPnJ-2IZSXI-301">
          <mxGeometry x="260" y="89.14999999999998" width="150" height="29.72" as="geometry" />
        </mxCell>
        <mxCell id="cjYBByrVhoPnJ-2IZSXI-227" value="" style="shape=rectangle;fillColor=#FFFFFF;strokeColor=#000000;fontSize=20;align=center;container=0;" vertex="1" parent="cjYBByrVhoPnJ-2IZSXI-301">
          <mxGeometry y="118.8679245283019" width="69.62962962962962" height="29.71698113207547" as="geometry" />
        </mxCell>
        <mxCell id="cjYBByrVhoPnJ-2IZSXI-228" value="telefono" style="shape=rectangle;fillColor=#FFFFFF;strokeColor=#000000;fontSize=20;align=center;fontStyle=0;container=0;" vertex="1" parent="cjYBByrVhoPnJ-2IZSXI-301">
          <mxGeometry x="69.63" y="118.87" width="190.37" height="29.72" as="geometry" />
        </mxCell>
        <mxCell id="cjYBByrVhoPnJ-2IZSXI-229" value="VARCHAR(15)" style="shape=rectangle;fillColor=#FFFFFF;strokeColor=#000000;fontSize=20;align=center;fontStyle=0;container=0;" vertex="1" parent="cjYBByrVhoPnJ-2IZSXI-301">
          <mxGeometry x="260" y="118.87" width="150" height="29.72" as="geometry" />
        </mxCell>
        <mxCell id="cjYBByrVhoPnJ-2IZSXI-230" value="" style="shape=rectangle;fillColor=#FFFFFF;strokeColor=#000000;fontSize=20;align=center;container=0;" vertex="1" parent="cjYBByrVhoPnJ-2IZSXI-301">
          <mxGeometry y="149.57547169811323" width="69.62962962962962" height="29.71698113207547" as="geometry" />
        </mxCell>
        <mxCell id="cjYBByrVhoPnJ-2IZSXI-231" value="direccion" style="shape=rectangle;fillColor=#FFFFFF;strokeColor=#000000;fontSize=20;align=center;fontStyle=0;container=0;" vertex="1" parent="cjYBByrVhoPnJ-2IZSXI-301">
          <mxGeometry x="69.63" y="149.58000000000004" width="190.37" height="29.72" as="geometry" />
        </mxCell>
        <mxCell id="cjYBByrVhoPnJ-2IZSXI-232" value="VARCHAR(15)" style="shape=rectangle;fillColor=#FFFFFF;strokeColor=#000000;fontSize=20;align=center;fontStyle=0;container=0;" vertex="1" parent="cjYBByrVhoPnJ-2IZSXI-301">
          <mxGeometry x="260" y="149.58000000000004" width="150" height="29.72" as="geometry" />
        </mxCell>
        <mxCell id="cjYBByrVhoPnJ-2IZSXI-288" value="indice" style="shape=rectangle;fillColor=#FFFFFF;strokeColor=#000000;fontSize=20;align=center;container=0;" vertex="1" parent="cjYBByrVhoPnJ-2IZSXI-301">
          <mxGeometry y="180.2830188679245" width="69.62962962962962" height="29.71698113207547" as="geometry" />
        </mxCell>
        <mxCell id="cjYBByrVhoPnJ-2IZSXI-289" value="DNI_camionero" style="shape=rectangle;fillColor=#FFFFFF;strokeColor=#000000;fontSize=20;align=center;fontStyle=0;container=0;" vertex="1" parent="cjYBByrVhoPnJ-2IZSXI-301">
          <mxGeometry x="69.63" y="180.27999999999997" width="190.37" height="29.72" as="geometry" />
        </mxCell>
        <mxCell id="cjYBByrVhoPnJ-2IZSXI-290" value="INT(8)" style="shape=rectangle;fillColor=#FFFFFF;strokeColor=#000000;fontSize=20;align=center;fontStyle=0;container=0;" vertex="1" parent="cjYBByrVhoPnJ-2IZSXI-301">
          <mxGeometry x="260" y="180.27999999999997" width="150" height="29.72" as="geometry" />
        </mxCell>
        <mxCell id="cjYBByrVhoPnJ-2IZSXI-303" value="" style="group" vertex="1" connectable="0" parent="1">
          <mxGeometry x="985" y="153" width="470" height="210" as="geometry" />
        </mxCell>
        <mxCell id="cjYBByrVhoPnJ-2IZSXI-304" value="Row 3" style="shape=rectangle;fillColor=#FFFFFF;strokeColor=#000000;fontSize=20;container=0;" vertex="1" parent="cjYBByrVhoPnJ-2IZSXI-303">
          <mxGeometry x="121.85185185185185" y="9.905660377358515" width="156.66666666666666" height="29.71698113207547" as="geometry" />
        </mxCell>
        <mxCell id="cjYBByrVhoPnJ-2IZSXI-305" value="date" style="shape=rectangle;fillColor=#FFFFFF;strokeColor=#000000;fontSize=20;container=0;" vertex="1" parent="cjYBByrVhoPnJ-2IZSXI-303">
          <mxGeometry x="278.5185185185185" y="9.905660377358515" width="156.66666666666666" height="29.71698113207547" as="geometry" />
        </mxCell>
        <mxCell id="cjYBByrVhoPnJ-2IZSXI-306" value="PAQUETE " style="shape=rectangle;fillColor=#FFFFFF;strokeColor=#000000;fontSize=20;align=center;fontStyle=1;container=0;" vertex="1" parent="cjYBByrVhoPnJ-2IZSXI-303">
          <mxGeometry width="470" height="29.71698113207547" as="geometry" />
        </mxCell>
        <mxCell id="cjYBByrVhoPnJ-2IZSXI-307" value="PK" style="shape=rectangle;fillColor=#FFFFFF;strokeColor=#000000;fontSize=20;align=center;fontStyle=0;container=0;" vertex="1" parent="cjYBByrVhoPnJ-2IZSXI-303">
          <mxGeometry y="29.71698113207549" width="69.62962962962963" height="29.71698113207547" as="geometry" />
        </mxCell>
        <mxCell id="cjYBByrVhoPnJ-2IZSXI-308" value="id_paquete" style="shape=rectangle;fillColor=#FFFFFF;strokeColor=#000000;fontSize=20;align=center;fontStyle=0;container=0;" vertex="1" parent="cjYBByrVhoPnJ-2IZSXI-303">
          <mxGeometry x="69.63" y="29.72" width="243.7" height="30.28" as="geometry" />
        </mxCell>
        <mxCell id="cjYBByrVhoPnJ-2IZSXI-309" value="INT(12)" style="shape=rectangle;fillColor=#FFFFFF;strokeColor=#000000;fontSize=20;align=center;fontStyle=0;container=0;" vertex="1" parent="cjYBByrVhoPnJ-2IZSXI-303">
          <mxGeometry x="313.33333333333326" y="29.71698113207549" width="156.66666666666666" height="29.71698113207547" as="geometry" />
        </mxCell>
        <mxCell id="cjYBByrVhoPnJ-2IZSXI-310" value="" style="shape=rectangle;fillColor=#FFFFFF;strokeColor=#000000;fontSize=20;align=center;container=0;" vertex="1" parent="cjYBByrVhoPnJ-2IZSXI-303">
          <mxGeometry y="59.43396226415092" width="69.62962962962963" height="29.71698113207547" as="geometry" />
        </mxCell>
        <mxCell id="cjYBByrVhoPnJ-2IZSXI-311" value="descripcion" style="shape=rectangle;fillColor=#FFFFFF;strokeColor=#000000;fontSize=20;align=center;fontStyle=0;container=0;" vertex="1" parent="cjYBByrVhoPnJ-2IZSXI-303">
          <mxGeometry x="69.62962962962962" y="59.43396226415092" width="243.7037037037037" height="29.71698113207547" as="geometry" />
        </mxCell>
        <mxCell id="cjYBByrVhoPnJ-2IZSXI-312" value="VARCHAR(300)" style="shape=rectangle;fillColor=#FFFFFF;strokeColor=#000000;fontSize=20;align=center;fontStyle=0;container=0;" vertex="1" parent="cjYBByrVhoPnJ-2IZSXI-303">
          <mxGeometry x="313.33333333333326" y="59.43396226415092" width="156.66666666666666" height="29.71698113207547" as="geometry" />
        </mxCell>
        <mxCell id="cjYBByrVhoPnJ-2IZSXI-313" value="" style="shape=rectangle;fillColor=#FFFFFF;strokeColor=#000000;fontSize=20;align=center;container=0;" vertex="1" parent="cjYBByrVhoPnJ-2IZSXI-303">
          <mxGeometry y="89.15094339622641" width="69.62962962962963" height="29.71698113207547" as="geometry" />
        </mxCell>
        <mxCell id="cjYBByrVhoPnJ-2IZSXI-314" value="provinciaDestino" style="shape=rectangle;fillColor=#FFFFFF;strokeColor=#000000;fontSize=20;align=center;fontStyle=0;container=0;" vertex="1" parent="cjYBByrVhoPnJ-2IZSXI-303">
          <mxGeometry x="69.62962962962962" y="89.15094339622641" width="243.7037037037037" height="29.71698113207547" as="geometry" />
        </mxCell>
        <mxCell id="cjYBByrVhoPnJ-2IZSXI-315" value="VARCHAR(20)" style="shape=rectangle;fillColor=#FFFFFF;strokeColor=#000000;fontSize=20;align=center;fontStyle=0;container=0;" vertex="1" parent="cjYBByrVhoPnJ-2IZSXI-303">
          <mxGeometry x="313.33333333333326" y="89.15094339622641" width="156.66666666666666" height="29.71698113207547" as="geometry" />
        </mxCell>
        <mxCell id="cjYBByrVhoPnJ-2IZSXI-316" value="" style="shape=rectangle;fillColor=#FFFFFF;strokeColor=#000000;fontSize=20;align=center;container=0;" vertex="1" parent="cjYBByrVhoPnJ-2IZSXI-303">
          <mxGeometry y="118.8679245283019" width="69.62962962962963" height="29.71698113207547" as="geometry" />
        </mxCell>
        <mxCell id="cjYBByrVhoPnJ-2IZSXI-317" value="direccionDestinatario" style="shape=rectangle;fillColor=#FFFFFF;strokeColor=#000000;fontSize=20;align=center;fontStyle=0;container=0;" vertex="1" parent="cjYBByrVhoPnJ-2IZSXI-303">
          <mxGeometry x="69.62962962962962" y="118.8679245283019" width="243.7037037037037" height="29.71698113207547" as="geometry" />
        </mxCell>
        <mxCell id="cjYBByrVhoPnJ-2IZSXI-318" value="VARCHAR(25)" style="shape=rectangle;fillColor=#FFFFFF;strokeColor=#000000;fontSize=20;align=center;fontStyle=0;container=0;" vertex="1" parent="cjYBByrVhoPnJ-2IZSXI-303">
          <mxGeometry x="313.33333333333326" y="118.8679245283019" width="156.66666666666666" height="29.71698113207547" as="geometry" />
        </mxCell>
        <mxCell id="cjYBByrVhoPnJ-2IZSXI-325" value="" style="endArrow=ERmany;html=1;rounded=0;exitX=0;exitY=0.5;exitDx=0;exitDy=0;endFill=0;startArrow=ERone;startFill=0;strokeWidth=2;targetPerimeterSpacing=3;sourcePerimeterSpacing=2;endSize=15;startSize=15;entryX=1;entryY=0.5;entryDx=0;entryDy=0;" edge="1" parent="1" source="cjYBByrVhoPnJ-2IZSXI-307" target="cjYBByrVhoPnJ-2IZSXI-278">
          <mxGeometry width="50" height="50" relative="1" as="geometry">
            <mxPoint x="945" y="310" as="sourcePoint" />
            <mxPoint x="935" y="350" as="targetPoint" />
            <Array as="points">
              <mxPoint x="955" y="198" />
              <mxPoint x="955" y="224" />
            </Array>
          </mxGeometry>
        </mxCell>
        <mxCell id="cjYBByrVhoPnJ-2IZSXI-326" value="&lt;font style=&quot;font-size: 26px;&quot;&gt;Cuando el rombo tiene un atributo, va una tabla intermedia. En este caso&lt;br&gt;hicimos esta tabla porque se olvidó de corregir el M:N en despacha. No está mal la &lt;br&gt;tabla intermedia. Pero puede no estar. (para mí mejor que esté)&lt;/font&gt;" style="text;html=1;align=center;verticalAlign=middle;resizable=0;points=[];autosize=1;strokeColor=#b85450;fillColor=#f8cecc;gradientColor=#ea6b66;" vertex="1" parent="1">
          <mxGeometry x="260" y="430" width="980" height="110" as="geometry" />
        </mxCell>
      </root>
    </mxGraphModel>
  </diagram>
</mxfile>
